<svg width="24" height="24" viewBox="0 0 24 24" fill="none" xmlns="http://www.w3.org/2000/svg">
<path d="M17 2V4M12 2V4M7 2L7 4" stroke="#69757A" stroke-width="1.5" stroke-linecap="round" stroke-linejoin="round"/>
<path d="M3.5 13L3.5 9C3.5 6.17157 3.5 4.75736 4.37868 3.87868C5.25736 3 6.67157 3 9.5 3L14.5 3C17.3284 3 18.7426 3 19.6213 3.87868C20.5 4.75736 20.5 6.17157 20.5 9L20.5 13C20.5 15.8284 20.5 17.2426 19.6213 18.1213C18.7426 19 17.3284 19 14.5 19L9.5 19C6.67157 19 5.25736 19 4.37868 18.1213C3.5 17.2426 3.5 15.8284 3.5 13Z" stroke="#69757A" stroke-width="1.5"/>
<path d="M3.5 16L3.5 9C3.5 6.17157 3.5 4.75736 4.37868 3.87868C5.25736 3 6.67157 3 9.5 3L14.5 3C17.3284 3 18.7426 3 19.6213 3.87868C20.5 4.75736 20.5 6.17157 20.5 9L20.5 16C20.5 18.8284 20.5 20.2426 19.6213 21.1213C18.7426 22 17.3284 22 14.5 22L9.5 22C6.67157 22 5.25736 22 4.37868 21.1213C3.5 20.2426 3.5 18.8284 3.5 16Z" stroke="#69757A" stroke-width="1.5"/>
<path d="M8 15H12M8 10L16 10" stroke="#69757A" stroke-width="1.5" stroke-linecap="round"/>
</svg>
